Coordinates
version=1
nRows=4
nColumns=107
inDegrees=yes

Units are S.I. units (second, meters, Newtons, ...)
If the header above contains a line with 'inDegrees', this indicates whether rotational values are in degrees (yes) or radians (no).

endheader
time	sternoclavicular_r2	sternoclavicular_r3	unrotscap_r3	unrotscap_r2	acromioclavicular_r2	acromioclavicular_r3	acromioclavicular_r1	unrothum_r1	unrothum_r3	unrothum_r2	elv_angle	shoulder_elv	shoulder1_r2	shoulder_rot	elbow_flexion	pro_sup	deviation	flexion	proximal_distal_r1	proximal_distal_r3	cmc_flexion	cmc_abduction	mp_flexion	ip_flexion	mcp2_flexion	mcp2_abduction	pm2_flexion	md2_flexion	mcp3_flexion	mcp3_abduction	pm3_flexion	md3_flexion	mcp4_flexion	mcp4_abduction	pm4_flexion	md4_flexion	mcp5_flexion	mcp5_abduction	pm5_flexion	md5_flexion	bicpt_tx	bicpt_ty	bicpt_tz	bicpt2_tx	bicpt2_ty	bicpt2_tz	ptpt_tx	ptpt_ty	ptpt_tz	FCUpt_tx	FCUpt_ty	FCUpt_tz	EDCpt_tx	EDCpt_ty	EDCpt_tz	APLpt_tx	APLpt_ty	APLpt_tz	FPLpt_tx	FPLpt_ty	FPLpt_tz	FPLpt2_tx	FPLpt2_ty	FPLpt2_tz	PEC1pt2_tx	PEC1pt2_ty	PEC1pt2_tz	PEC1pt3_tx	PEC1pt3_ty	PEC1pt3_tz	PEC2pt2_tx	PEC2pt2_ty	PEC2pt2_tz	PEC2pt3_tx	PEC2pt3_ty	PEC2pt3_tz	PEC3pt2_tx	PEC3pt2_ty	PEC3pt2_tz	PEC3pt3_tx	PEC3pt3_ty	PEC3pt3_tz	DELT2pt2a_tx	DELT2pt2a_ty	DELT2pt2a_tz	DELT2pt2_tx	DELT2pt2_ty	DELT2pt2_tz	LAT1pt2_tx	LAT1pt2_ty	LAT1pt2_tz	LAT1pt3_tx	LAT1pt3_ty	LAT1pt3_tz	LAT2pt2_tx	LAT2pt2_ty	LAT2pt2_tz	LAT2pt3_tx	LAT2pt3_ty	LAT2pt3_tz	LAT3pt2_tx	LAT3pt2_ty	LAT3pt2_tz	LAT3pt3_tx	LAT3pt3_ty	LAT3pt3_tz
      0.00000000	     -0.31686504	      0.13420907	     -0.13420907	      0.31686504	     -0.06415872	      0.51850824	      0.23306589	     -0.23306589	     -0.51850824	      0.06415872	    100.70651174	     75.02061382	     -1.75766021	    -33.61780550	     30.96634403	     80.86529911	      0.33449088	     -0.65091333	      0.36237333	     -0.32545666	     32.40122848	    -23.02791666	    -15.04299222	      6.40262237	    103.67061238	     12.96003181	     67.19584817	     41.24446224	     94.94355593	      1.19569618	     77.12741396	     44.60741706	     93.23378541	    -13.64631152	     82.92842604	     35.17746922	     95.56959841	    -14.19813725	     80.62862773	      5.52161262	      0.00092427	     -0.03114922	     -0.00487169	      0.01474051	     -0.01861216	     -0.00193686	      0.00157497	     -0.06876356	     -0.00656413	      0.01215222	     -0.18240787	     -0.00004770	     -0.00970381	      0.00330031	     -0.00059949	      0.00031118	      0.00012447	      0.00062235	      0.00039831	      0.00119492	      0.00067214	     -0.00001124	     -0.00022679	     -0.00027215	      0.00245901	      0.00862738	      0.00600165	     -0.00804388	      0.01942202	     -0.01842174	      0.00245901	      0.00862738	      0.00600165	      0.00054182	      0.01800496	     -0.00946094	      0.00390430	      0.00479758	      0.01585998	      0.00000000	      0.00752524	      0.00000000	     -0.00704361	     -0.03255064	     -0.00620344	      0.02039430	     -0.00088236	     -0.00933706	     -0.00087524	      0.01467071	     -0.00600165	      0.00241733	      0.02117250	     -0.01750482	     -0.00587662	      0.01271184	     -0.00537648	     -0.01225338	      0.02684073	     -0.03004995	     -0.02300634	      0.01421225	     -0.00721032	     -0.01525420	      0.03100855	     -0.03755202
      0.03333333	     -0.31687236	      0.13421217	     -0.13421217	      0.31687236	     -0.06416021	      0.51852022	      0.23307127	     -0.23307127	     -0.51852022	      0.06416021	    100.74744556	     75.02234686	     -1.75837464	    -33.67586906	     30.85252897	     80.69397500	      0.33286083	     -0.65484279	      0.36105145	     -0.32742139	     32.53815714	    -23.04864234	    -15.07384337	      6.47018254	    104.13446226	     12.92991266	     67.68745476	     41.72343584	     96.00185056	      1.05852861	     76.69816258	     44.92674791	     92.81537072	    -13.56569564	     84.89474697	     36.67999863	     96.23954927	    -14.20046468	     80.74939830	      5.54250125	      0.00092051	     -0.03113617	     -0.00486958	      0.01475618	     -0.01858124	     -0.00196495	      0.00158763	     -0.06875537	     -0.00655033	      0.01213281	     -0.18241342	     -0.00005175	     -0.00968325	      0.00329118	     -0.00059447	      0.00031088	      0.00012435	      0.00062176	      0.00039793	      0.00119378	      0.00067150	     -0.00001136	     -0.00022528	     -0.00027034	      0.00245907	      0.00862758	      0.00600179	     -0.00804407	      0.01942247	     -0.01842217	      0.00245907	      0.00862758	      0.00600179	      0.00054183	      0.01800538	     -0.00946116	      0.00390437	      0.00479769	      0.01586014	      0.00000000	      0.00752559	      0.00000000	     -0.00704377	     -0.03255139	     -0.00620374	      0.02041716	     -0.00088440	     -0.00936781	     -0.00087526	      0.01467105	     -0.00600179	      0.00241739	      0.02117299	     -0.01750523	     -0.00587676	      0.01271213	     -0.00537661	     -0.01225366	      0.02684135	     -0.03005064	     -0.02300687	      0.01421258	     -0.00721049	     -0.01525456	      0.03100926	     -0.03755288
      0.06666667	     -0.31680777	      0.13418482	     -0.13418482	      0.31680777	     -0.06414713	      0.51841453	      0.23302377	     -0.23302377	     -0.51841453	      0.06414713	    100.81549323	     75.00705578	     -1.75956229	    -33.88576488	     30.71041579	     80.40123243	      0.32234789	     -0.68290901	      0.35242196	     -0.34145451	     32.67408987	    -23.03929409	    -15.39268092	      6.96847507	    104.62865840	     12.86618302	     67.50734522	     43.59671983	     96.88220435	      0.96160969	     75.91611269	     46.67783250	     92.80207609	    -13.51901289	     85.20322622	     40.02543970	     96.66709821	    -14.20488741	     80.85040453	      5.54475466	      0.00091581	     -0.03111988	     -0.00486696	      0.01478282	     -0.01854264	     -0.00201287	      0.00160926	     -0.06874138	     -0.00652675	      0.01209967	     -0.18242289	     -0.00005862	     -0.00964813	      0.00327561	     -0.00058593	      0.00030817	      0.00012327	      0.00061633	      0.00039445	      0.00118336	      0.00066564	     -0.00001147	     -0.00022375	     -0.00026850	      0.00245857	      0.00862582	      0.00600057	     -0.00804243	      0.01941851	     -0.01841841	      0.00245857	      0.00862582	      0.00600057	      0.00054172	      0.01800171	     -0.00945923	      0.00390378	      0.00479671	      0.01585869	      0.00000000	      0.00752250	      0.00000000	     -0.00704234	     -0.03254476	     -0.00620117	      0.02049969	     -0.00089177	     -0.00947903	     -0.00087508	      0.01466806	     -0.00600057	      0.00241690	      0.02116868	     -0.01750166	     -0.00587556	      0.01270954	     -0.00537551	     -0.01225116	      0.02683588	     -0.03004452	     -0.02300218	      0.01420968	     -0.00720902	     -0.01525145	      0.03100294	     -0.03754523
      0.10000000	     -0.31676746	      0.13416775	     -0.13416775	      0.31676746	     -0.06413897	      0.51834858	      0.23299412	     -0.23299412	     -0.51834858	      0.06413897	    100.81283142	     74.99751301	     -1.75951584	    -33.88621197	     30.70949668	     80.40004907	      0.32234282	     -0.68289427	      0.35241770	     -0.34144714	     32.67397889	    -23.03952304	    -15.39264322	      6.96846830	    104.63025747	     12.86618199	     67.50787705	     43.59703283	     96.88561282	      0.96164061	     75.91645876	     46.67787376	     92.80207319	    -13.51871248	     85.20465818	     40.02602103	     96.66839712	    -14.20495902	     80.85066310	      5.54480923	      0.00091577	     -0.03111978	     -0.00486694	      0.01478289	     -0.01854239	     -0.00201304	      0.00160934	     -0.06874133	     -0.00652666	      0.01209954	     -0.18242292	     -0.00005863	     -0.00964798	      0.00327555	     -0.00058590	      0.00030816	      0.00012326	      0.00061631	      0.00039444	      0.00118332	      0.00066562	     -0.00001147	     -0.00022374	     -0.00026849	      0.00245825	      0.00862472	      0.00599981	     -0.00804141	      0.01941604	     -0.01841607	      0.00245825	      0.00862472	      0.00599981	      0.00054165	      0.01799942	     -0.00945803	      0.00390342	      0.00479610	      0.01585778	      0.00000000	      0.00752058	      0.00000000	     -0.00704144	     -0.03254062	     -0.00619957	      0.02049976	     -0.00089179	     -0.00947935	     -0.00087497	      0.01466619	     -0.00599981	      0.00241659	      0.02116598	     -0.01749943	     -0.00587481	      0.01270792	     -0.00537483	     -0.01224960	      0.02683247	     -0.03004070	     -0.02299926	      0.01420787	     -0.00720810	     -0.01524951	      0.03099900	     -0.03754045
